<svg width="11" height="11" viewBox="0 0 11 11" fill="none" xmlns="http://www.w3.org/2000/svg">
<path d="M5.72791 5.28838L2.98543 1.78428C2.9532 1.74238 2.90271 1.71875 2.85008 1.71875H2.01971C1.94773 1.71875 1.90799 1.80146 1.95203 1.85732L4.80301 5.5L1.95203 9.14268C1.94211 9.15534 1.93596 9.17054 1.93427 9.18654C1.93258 9.20254 1.93543 9.21869 1.94249 9.23315C1.94955 9.2476 1.96054 9.25978 1.97419 9.26829C1.98785 9.27679 2.00362 9.28128 2.01971 9.28125H2.85008C2.90271 9.28125 2.9532 9.25654 2.98543 9.21572L5.72791 5.7127C5.82566 5.58701 5.82566 5.41299 5.72791 5.28838V5.28838ZM8.99353 5.28838L6.25105 1.78428C6.21883 1.74238 6.16834 1.71875 6.1157 1.71875H5.28533C5.21336 1.71875 5.17361 1.80146 5.21765 1.85732L8.06863 5.5L5.21765 9.14268C5.20774 9.15534 5.20158 9.17054 5.1999 9.18654C5.19821 9.20254 5.20106 9.21869 5.20812 9.23315C5.21518 9.2476 5.22616 9.25978 5.23982 9.26829C5.25347 9.27679 5.26924 9.28128 5.28533 9.28125H6.1157C6.16834 9.28125 6.21883 9.25654 6.25105 9.21572L8.99353 5.7127C9.09129 5.58701 9.09129 5.41299 8.99353 5.28838V5.28838Z" fill="#AD7205"/>
</svg>
